<?xml version="1.0" encoding="UTF-8"?>
<svg id="Layer_1" data-name="Layer 1" xmlns="http://www.w3.org/2000/svg" viewBox="0 0 841.79 213.47">
  <defs>
    <style>
      .cls-1 {
        fill: #4335a7;
      }
    </style>
  </defs>
  <g>
    <path class="cls-1" d="M208.88,139.06c-.54-6.95-4.3-18.49-10.54-22.24-2.18-1.31-4.03-1.68-6.51-2.1-3.7-17.7-17.65-29.79-33.6-36.81-19.27-8.47-41.35-11.39-62.24-10.59-13.19.53-26.29,2.66-38.74,7.14-5.51,1.98-10.85,4.44-15.88,7.45-2.09,1.25-4.12,2.6-6.07,4.07-12.04,9.02-16.51,21.24-18.13,35.91-13.88,6.26-12.36,26.7-10.1,39.22,1.49,8.29,3.96,15.63,13.35,17.21,2.75,7.16,6.68,15.16,13.22,19.57,13.58,9.16,44.26,13.62,60.68,14.89,23.71,1.83,65.78,1.08,83.62-16.95,5.26-5.32,7.77-13.31,10.18-20.24,5.39.1,11.51-.5,14.74-5.4,4.79-7.26,6.68-22.61,6.02-31.14ZM159.97,166.21c-7.35,9.93-22.66,9.08-33.71,8.24-17.01-1.3-32.76-3.92-50.01-2.5-10.28.85-30.45,5.6-39.46,2.23-7.96-2.98-10.75-14.58-11.76-22.13-2.01-15.02.02-45.63,12.33-56.21,13.69-11.77,45.2-16.24,62.86-16.87,16.43-.59,49.59,1.18,59.85,16.11,10.37,15.08,10.87,56.31-.11,71.14Z"/>
    <path class="cls-1" d="M121.06,110.34c-14.1,2.02-13.33,28.78,2.42,27.71,15.88-1.08,15.21-30.23-2.42-27.71Z"/>
    <path class="cls-1" d="M54.66,111.18c-17.38,2.02-12.12,34.26,5.25,26.92,12.79-5.41,9.25-28.61-5.25-26.92Z"/>
    <path class="cls-1" d="M99.25,145.06c-1.77-.39-5.38-.01-7.36.02-.33,0-.74.2-1.18.21-3.62.05-9.18-.51-12.5,0-2.78.44-1.7,3.32-.86,4.99,4.29,8.48,16.9,8.39,21.93.53.96-1.5,2.78-5.13-.04-5.75Z"/>
    <path class="cls-1" d="M33.66,78.08c10.8-6.18,31.06-13.2,53.7-16.29,36.31-4.96,67.23,5.7,79.95,11.43l2.06-6.87,28.47-14.93c-.07,1.92,1.41,4.99.96,6.77-.08.3-.8.42-1.11.86-2.86,4.07-.93,10.38,2.56,13.49-.63,4.54.05,9.17.14,13.66.09,4.46-.42,9.68-.03,14.01.12,1.35.23,2.49,1.75,2.7,1.73.24,10.19-1.36,11.94-2.09,2.37-.98,2.03-1.78,1.42-3.95-2.32-8.26-7.29-16.77-10.58-24.72-.13-.9.8-1.79,1.05-2.63,1.07-3.54.01-8.94-3.18-11.12-.69-.47-1.98-.65-2.11-.82-.28-.4-1.29-6.71-1.09-7.12,2.32-1.78,5.6-2.79,8.03-4.37.31-.2.57.04.41-.71L99,0,0,45.39l33.4,18.11.26,14.59Z"/>
  </g>
  <g>
    <path d="M277.15,191.82c-11.12,0-20.28-2.55-27.47-7.65s-11.79-12.24-13.77-21.42l21.11-4.84c1.2,5.4,3.56,9.52,7.09,12.35,3.53,2.84,8.11,4.26,13.74,4.26s9.87-1.14,13.15-3.43c3.28-2.28,4.91-5.41,4.91-9.38,0-3.37-1.06-5.94-3.18-7.72-2.12-1.78-5.84-3.45-11.14-5.02l-10.66-3.39c-5.49-1.61-10.03-3.24-13.63-4.88-3.6-1.64-6.82-3.63-9.65-5.99s-4.91-5.14-6.23-8.37c-1.31-3.23-1.97-7.01-1.97-11.35,0-9.37,3.51-16.82,10.52-22.35,7.01-5.54,16.47-8.31,28.37-8.31,10.06,0,18.38,2.32,24.98,6.96,6.6,4.64,10.77,11.2,12.53,19.69l-19.79,4.29c-1.06-4.52-3.18-7.95-6.37-10.28-3.18-2.33-7.22-3.49-12.11-3.49s-8.93,1.17-11.7,3.49c-2.77,2.33-4.15,5.13-4.15,8.41,0,3.55,1.28,6.33,3.84,8.34,2.56,2.01,7.05,3.91,13.46,5.71l8.79,2.56c3.88,1.15,7.21,2.28,10,3.39s5.52,2.49,8.2,4.15c2.68,1.66,4.84,3.49,6.51,5.5s2.99,4.43,3.98,7.27c.99,2.84,1.49,6.03,1.49,9.59,0,9.87-3.7,17.66-11.11,23.36-7.41,5.7-17.31,8.55-29.72,8.55Z"/>
    <path d="M360.62,191.68c-11.67,0-20.95-3.59-27.82-10.76-6.88-7.17-10.31-16.6-10.31-28.27s3.55-21.23,10.66-28.55c7.1-7.31,16.45-10.97,28.03-10.97,8.67,0,16.02,2.2,22.04,6.61,6.02,4.41,10.05,10.28,12.08,17.61l-18.41,4.01c-1.2-3.64-3.11-6.54-5.74-8.69-2.63-2.15-5.95-3.22-9.97-3.22-5.91,0-10.45,2.03-13.63,6.09-3.18,4.06-4.78,9.76-4.78,17.09s1.64,12.88,4.91,16.92c3.28,4.04,7.77,6.06,13.5,6.06,8.12,0,13.45-3.97,15.99-11.9l18.13,4.15c-2.08,7.24-6.17,13.02-12.28,17.34-6.11,4.31-13.58,6.47-22.39,6.47Z"/>
    <path d="M402.64,189.81v-103.46h20v27.89c0,2.58-.09,5.67-.28,9.27,5.12-6.83,12.73-10.24,22.84-10.24,8.67,0,15.35,2.6,20.04,7.79,4.68,5.19,7.02,12.84,7.02,22.94v45.81h-19.86v-36.4c0-8.35-1.18-14.36-3.53-18.03s-5.91-5.5-10.66-5.5c-5.35,0-9.29,1.87-11.8,5.61s-3.77,9.46-3.77,17.16v37.16h-20Z"/>
    <path d="M519.81,191.68c-11.67,0-21.13-3.62-28.37-10.87-7.24-7.24-10.87-16.68-10.87-28.3s3.64-21.1,10.93-28.41c7.29-7.31,16.77-10.97,28.44-10.97s21.05,3.66,28.27,10.97c7.22,7.31,10.83,16.78,10.83,28.41s-3.63,21.06-10.9,28.3c-7.27,7.24-16.71,10.87-28.34,10.87ZM519.81,175.63c6.09,0,10.77-2.04,14.05-6.12s4.91-9.7,4.91-16.85-1.66-12.65-4.98-16.92c-3.32-4.27-7.98-6.4-13.98-6.4s-10.83,2.12-14.22,6.37c-3.39,4.25-5.09,9.85-5.09,16.82s1.68,12.85,5.05,16.96c3.37,4.11,8.12,6.16,14.26,6.16Z"/>
    <path d="M568.26,189.81v-103.46h20.14v103.46h-20.14Z"/>
    <path d="M624.81,191.2c-8.4,0-15.03-1.97-19.9-5.92-4.87-3.94-7.3-9.42-7.3-16.44s2.2-11.75,6.61-15.19c4.41-3.44,11.85-6.12,22.32-8.06l12.18-2.28c3.46-.65,5.49-1.15,6.09-1.52.92-.65,1.38-1.78,1.38-3.39,0-3.14-1.17-5.63-3.5-7.47-2.33-1.84-5.59-2.77-9.79-2.77s-7.77,1.07-10.17,3.22c-2.4,2.15-3.74,5.09-4.01,8.82l-18.69-1.11c.55-7.7,3.76-13.86,9.62-18.48,5.86-4.61,13.7-6.92,23.53-6.92,10.7,0,18.72,2.35,24.05,7.06,5.33,4.71,7.99,12,7.99,21.87v43.67c0,.69.02,1.43.07,2.21.05.78.07,1.22.07,1.31h-16.89c-.09-.74-.14-2.01-.14-3.81v-2.84h-.14c-5.49,5.35-13.29,8.03-23.39,8.03ZM629.79,178.05c5.35,0,9.49-1.46,12.42-4.4,2.93-2.93,4.4-7.19,4.4-12.77v-2.7c0-1.57.09-2.56.28-2.98-1.06.28-2.07.52-3.01.73-.95.21-2.12.44-3.53.69-1.41.25-2.66.5-3.77.73-7.15,1.43-11.7,2.54-13.63,3.32-3.14,1.34-4.94,3.37-5.4,6.09-.09.55-.14,1.15-.14,1.8,0,3.05,1.07,5.39,3.22,7.02,2.15,1.64,5.2,2.46,9.17,2.46Z"/>
    <path d="M678.03,189.81v-60.83c0-6.23-.05-10.8-.14-13.7h18.89v3.39c0,3.18-.05,5.54-.14,7.06h.41c3.83-8.12,10.87-12.18,21.11-12.18,1.34,0,2.74.09,4.22.28l-.28,18.62c-1.71-.51-3.46-.76-5.26-.76-7.11,0-12.07,2.04-14.88,6.12-2.82,4.08-4.22,10.92-4.22,20.52v31.49h-19.72Z"/>
    <path d="M728.63,189.81v-16.89h12.32v16.89h-12.32Z"/>
    <path d="M777.63,191.2c-8.07,0-14.51-1.95-19.31-5.85-4.8-3.9-7.2-9.22-7.2-15.95,0-6.23,2.21-11.03,6.64-14.39,4.43-3.37,11.37-5.97,20.83-7.82l16.89-3.32c.51-.09,1.25-.23,2.21-.42.97-.18,1.6-.32,1.9-.42.3-.09.7-.25,1.21-.48.51-.23.83-.53.97-.9.14-.37.28-.85.42-1.45.14-.6.21-1.36.21-2.28,0-4.89-1.55-8.71-4.64-11.45-3.09-2.74-7.5-4.12-13.22-4.12s-10.3,1.36-13.74,4.08c-3.44,2.72-5.59,6.6-6.47,11.63l-10.8-.97c1.11-7.47,4.44-13.26,10-17.37,5.56-4.11,12.56-6.16,21-6.16,19.28,0,28.93,9.46,28.93,28.37v45.74c0,.78.05,1.5.14,2.15h-10.45v-2.84c0-1.11.02-2.36.07-3.77.04-1.41.07-2.36.07-2.87h-.28c-5.31,7.24-13.77,10.87-25.4,10.87ZM779.78,182.89c6.78,0,12.33-2.09,16.64-6.26,4.31-4.17,6.47-9.61,6.47-16.3v-4.71c0-2.12.09-3.57.28-4.36-.05,0-.37.07-.97.21-.6.14-1.35.3-2.25.48-.9.18-1.9.37-3.01.55-2.63.51-5.11,1-7.44,1.49-2.33.48-4.07.85-5.23,1.11-1.15.25-2.05.43-2.7.52-7.24,1.52-12.12,3.2-14.64,5.02-2.52,1.82-3.77,4.74-3.77,8.75,0,4.25,1.52,7.56,4.57,9.93,3.04,2.38,7.06,3.56,12.04,3.56Z"/>
    <path d="M830.3,103.79v-17.44h11.49v17.44h-11.49ZM830.3,189.81v-74.54h11.49v74.54h-11.49Z"/>
  </g>
</svg>