<?xml version="1.0" encoding="UTF-8"?>
<svg id="Layer_1" data-name="Layer 1" xmlns="http://www.w3.org/2000/svg" viewBox="0 0 812.99 890.86">
  <defs>
    <style>
      .cls-1 {
        fill: #4335a7;
      }
    </style>
  </defs>
  <g>
    <path class="cls-1" d="M747.48,355.73c-1.38-17.78-10.99-47.29-26.97-56.89-5.57-3.35-10.32-4.3-16.67-5.37-9.47-45.28-45.15-76.21-85.95-94.15-49.29-21.68-105.77-29.14-159.21-27.08-33.73,1.36-67.25,6.81-99.09,18.26-14.09,5.07-27.76,11.37-40.62,19.06-5.35,3.2-10.54,6.66-15.53,10.4-30.81,23.08-42.25,54.34-46.37,91.87-35.5,16.01-31.62,68.29-25.85,100.34,3.82,21.21,10.13,39.97,34.15,44.03,7.03,18.31,17.09,38.79,33.81,50.06,34.74,23.42,113.21,34.84,155.23,38.08,60.65,4.68,168.28,2.76,213.92-43.35,13.46-13.6,19.88-34.06,26.04-51.78,13.78.26,29.44-1.29,37.71-13.82,12.24-18.56,17.1-57.84,15.41-79.65ZM622.36,425.17c-18.81,25.41-57.96,23.24-86.23,21.08-43.51-3.32-83.8-10.03-127.93-6.39-26.3,2.17-77.9,14.33-100.94,5.7-20.36-7.63-27.51-37.28-30.09-56.62-5.14-38.43.06-116.73,31.55-143.8,35.01-30.1,115.62-41.55,160.81-43.17,42.04-1.51,126.84,3.02,153.11,41.21,26.54,38.58,27.81,144.04-.28,181.98Z"/>
    <path class="cls-1" d="M522.81,282.27c-36.06,5.17-34.1,73.61,6.2,70.87,40.62-2.76,38.91-77.34-6.2-70.87Z"/>
    <path class="cls-1" d="M352.96,284.41c-44.46,5.18-30.99,87.64,13.43,68.87,32.73-13.83,23.65-73.19-13.43-68.87Z"/>
    <path class="cls-1" d="M467.04,371.07c-4.52-1-13.77-.03-18.83.06-.83.01-1.9.52-3.02.53-9.26.13-23.49-1.32-31.97.01-7.12,1.12-4.34,8.5-2.19,12.76,10.97,21.7,43.24,21.45,56.1,1.35,2.45-3.82,7.1-13.12-.1-14.71Z"/>
    <path class="cls-1" d="M299.24,199.74c27.62-15.82,79.46-33.77,137.37-41.68,92.87-12.68,171.98,14.58,204.52,29.24l5.27-17.58,72.82-38.19c-.17,4.91,3.61,12.77,2.46,17.31-.2.77-2.05,1.08-2.84,2.2-7.31,10.4-2.39,26.55,6.56,34.5-1.61,11.61.14,23.46.37,34.96.23,11.42-1.09,24.77-.07,35.83.32,3.46.58,6.38,4.47,6.91,4.42.61,26.06-3.49,30.54-5.33,6.07-2.5,5.2-4.56,3.64-10.11-5.95-21.14-18.65-42.89-27.08-63.22-.34-2.29,2.05-4.57,2.7-6.72,2.73-9.05.03-22.86-8.12-28.44-1.77-1.21-5.07-1.65-5.39-2.11-.72-1.02-3.3-17.17-2.79-18.2,5.93-4.55,14.33-7.14,20.55-11.19.78-.51,1.46.09,1.05-1.81L466.39,0l-253.24,116.1,85.43,46.32.67,37.33Z"/>
  </g>
  <path class="cls-1" d="M228.1,580.24h0c-7.82,18.51-31.2,24.37-46.83,11.74L11.22,454.52c-12.8-10.35-14.97-29.04-4.87-42.04h0c9.23-11.88,25.78-15.16,38.84-7.7l153.11,87.39c30.8,17.58,43.6,55.42,29.79,88.09Z"/>
  <path class="cls-1" d="M764.44,547.54h0c-19.13-6.17-38.83,7.71-39.48,27.8l-6.98,218.54c-.53,16.45,12.21,30.3,28.66,31.14h0c15.02.77,28.32-9.62,31.21-24.38l33.84-173.01c6.81-34.81-13.48-69.21-47.24-80.1Z"/>
  <path class="cls-1" d="M260.35,566.21c-.67-14.4,14.27-24.39,27.37-18.36,19.62,9.04,68.5,28.2,170.08,37.17,117.01,10.33,191.28-23.6,206.31-30.13,2.06-.89,4.22-1.45,6.45-1.63,7.68-.61,23.76.35,25.93,18.73,1.28,10.9-38.67,120.51-94.22,237.74-53.63,113.19-216.91,106.43-260.95-10.82l-78.14-219.84s-2.49-5.85-2.82-12.87Z"/>
</svg>